<svg xmlns="http://www.w3.org/2000/svg" xmlns:svg="http://www.w3.org/2000/svg" xmlns:xlink="http://www.w3.org/1999/xlink" id="svg2" width="439.54" height="196.12" version="1.0"><metadata id="metadata371"/><defs id="defs4"><linearGradient id="linearGradient2795"><stop id="stop2797" offset="0" style="stop-color:#b8b8b8;stop-opacity:.49803922"/><stop id="stop2799" offset="1" style="stop-color:#7f7f7f;stop-opacity:0"/></linearGradient><linearGradient id="linearGradient2787"><stop id="stop2789" offset="0" style="stop-color:#7f7f7f;stop-opacity:.5"/><stop id="stop2791" offset="1" style="stop-color:#7f7f7f;stop-opacity:0"/></linearGradient><linearGradient id="linearGradient3676"><stop id="stop3678" offset="0" style="stop-color:#b2b2b2;stop-opacity:.5"/><stop id="stop3680" offset="1" style="stop-color:#b3b3b3;stop-opacity:0"/></linearGradient><linearGradient id="linearGradient3236"><stop id="stop3244" offset="0" style="stop-color:#f4f4f4;stop-opacity:1"/><stop id="stop3240" offset="1" style="stop-color:#fff;stop-opacity:1"/></linearGradient><linearGradient id="linearGradient4671"><stop id="stop4673" offset="0" style="stop-color:#ffd43b;stop-opacity:1"/><stop id="stop4675" offset="1" style="stop-color:#ffe873;stop-opacity:1"/></linearGradient><linearGradient id="linearGradient4689"><stop id="stop4691" offset="0" style="stop-color:#5a9fd4;stop-opacity:1"/><stop id="stop4693" offset="1" style="stop-color:#306998;stop-opacity:1"/></linearGradient><linearGradient id="linearGradient2987" x1="224.24" x2="-65.309" y1="144.757" y2="144.757" gradientTransform="translate(100.2702,99.61116)" gradientUnits="userSpaceOnUse" xlink:href="#linearGradient4671"/><linearGradient id="linearGradient2990" x1="172.942" x2="26.67" y1="77.476" y2="76.313" gradientTransform="translate(100.2702,99.61116)" gradientUnits="userSpaceOnUse" xlink:href="#linearGradient4689"/><linearGradient id="linearGradient2587" x1="172.942" x2="26.67" y1="77.476" y2="76.313" gradientTransform="translate(100.2702,99.61116)" gradientUnits="userSpaceOnUse" xlink:href="#linearGradient4689"/><linearGradient id="linearGradient2589" x1="224.24" x2="-65.309" y1="144.757" y2="144.757" gradientTransform="translate(100.2702,99.61116)" gradientUnits="userSpaceOnUse" xlink:href="#linearGradient4671"/><linearGradient id="linearGradient2248" x1="172.942" x2="26.67" y1="77.476" y2="76.313" gradientTransform="translate(100.2702,99.61116)" gradientUnits="userSpaceOnUse" xlink:href="#linearGradient4689"/><linearGradient id="linearGradient2250" x1="224.24" x2="-65.309" y1="144.757" y2="144.757" gradientTransform="translate(100.2702,99.61116)" gradientUnits="userSpaceOnUse" xlink:href="#linearGradient4671"/><linearGradient id="linearGradient2255" x1="224.24" x2="-65.309" y1="144.757" y2="144.757" gradientTransform="matrix(0.562541,0,0,0.567972,-11.5974,-7.60954)" gradientUnits="userSpaceOnUse" xlink:href="#linearGradient4671"/><linearGradient id="linearGradient2258" x1="172.942" x2="26.67" y1="76.176" y2="76.313" gradientTransform="matrix(0.562541,0,0,0.567972,-11.5974,-7.60954)" gradientUnits="userSpaceOnUse" xlink:href="#linearGradient4689"/><radialGradient id="radialGradient2801" cx="61.519" cy="132.286" r="29.037" fx="61.519" fy="132.286" gradientTransform="matrix(1,0,0,0.177966,0,108.7434)" gradientUnits="userSpaceOnUse" xlink:href="#linearGradient2795"/><linearGradient id="linearGradient1475" x1="150.961" x2="112.031" y1="192.352" y2="137.273" gradientTransform="matrix(0.562541,0,0,0.567972,33.698482,31.68078)" gradientUnits="userSpaceOnUse" xlink:href="#linearGradient4671"/><linearGradient id="linearGradient1478" x1="26.649" x2="135.665" y1="20.604" y2="114.398" gradientTransform="matrix(0.562541,0,0,0.567972,33.698482,31.68078)" gradientUnits="userSpaceOnUse" xlink:href="#linearGradient4689"/><radialGradient id="radialGradient1480" cx="61.519" cy="132.286" r="29.037" fx="61.519" fy="132.286" gradientTransform="matrix(2.382716e-8,-0.296405,1.43676,4.683673e-7,-128.544,150.5202)" gradientUnits="userSpaceOnUse" xlink:href="#linearGradient2795"/><linearGradient id="linearGradient3210" x1="26.649" x2="135.665" y1="20.604" y2="114.398" gradientTransform="matrix(0.562541,0,0,0.567972,33.698482,31.68078)" gradientUnits="userSpaceOnUse" xlink:href="#linearGradient4689"/><linearGradient id="linearGradient3212" x1="150.961" x2="112.031" y1="192.352" y2="137.273" gradientTransform="matrix(0.562541,0,0,0.567972,33.698482,31.68078)" gradientUnits="userSpaceOnUse" xlink:href="#linearGradient4671"/></defs><path id="path1894" d="m 110.46717,132.28575 a 48.948284,8.6066771 0 1 1 -97.896571,0 48.948284,8.6066771 0 1 1 97.896571,0 z" transform="matrix(0.73406,0,0,0.809524,58.972752,63.796144)" style="opacity:.44382019;fill:url(#radialGradient1480);fill-opacity:1;fill-rule:nonzero;stroke:none"/><g id="g3206" transform="matrix(1.1081583,0,0,1.1081583,-5.641244,-12.285301)"><path id="path1948" d="m 103.60839,43.38407 c -4.583656,0.0213 -8.960942,0.412218 -12.812503,1.09375 -11.346216,2.004504 -13.406249,6.200102 -13.40625,13.9375 l 0,10.21875 26.812503,0 0,3.40625 -26.812503,0 -10.0625,0 c -7.792459,0 -14.615759,4.683717 -16.75,13.59375 -2.46182,10.212966 -2.571015,16.58602 0,27.25 1.905928,7.93785 6.457543,13.59375 14.25,13.59375 l 9.21875,0 0,-12.25 c 0,-8.8499 7.657144,-16.656248 16.75,-16.65625 l 26.781253,0 c 7.45495,0 13.40625,-6.138164 13.40625,-13.625 l 0,-25.53125 c 0,-7.266339 -6.12998,-12.724778 -13.40625,-13.9375 -4.60599,-0.766725 -9.3851,-1.115048 -13.96875,-1.09375 z m -14.500003,8.21875 c 2.769547,0 5.03125,2.298646 5.03125,5.125 -2e-6,2.816336 -2.261703,5.09375 -5.03125,5.09375 -2.779476,-1e-6 -5.03125,-2.277415 -5.03125,-5.09375 -10e-7,-2.826353 2.251774,-5.125 5.03125,-5.125 z" style="fill:url(#linearGradient3210);fill-opacity:1"/><path id="path1950" d="m 134.32714,72.04032 0,11.90625 c 0,9.230755 -7.8259,17 -16.75,17 l -26.781253,0 c -7.335833,0 -13.406249,6.27848 -13.40625,13.625 l 0,25.53125 c 0,7.26634 6.318588,11.54032 13.40625,13.625 8.487331,2.49561 16.626233,2.94663 26.781253,0 6.75015,-1.95439 13.40625,-5.88761 13.40625,-13.625 l 0,-10.21875 -26.78125,0 0,-3.40625 26.78125,0 13.40625,0 c 7.79246,0 10.69625,-5.43541 13.40624,-13.59375 2.79933,-8.39889 2.68022,-16.475776 0,-27.25 -1.92578,-7.757441 -5.60387,-13.59375 -13.40624,-13.59375 l -10.0625,0 z m -15.0625,64.65625 c 2.77948,0 5.03125,2.27742 5.03125,5.09375 -1e-5,2.82635 -2.25178,5.125 -5.03125,5.125 -2.76955,0 -5.03125,-2.29865 -5.03125,-5.125 0,-2.81633 2.26169,-5.09375 5.03125,-5.09375 z" style="fill:url(#linearGradient3212);fill-opacity:1"/></g><g id="g3179" transform="translate(32.006378,36.786794)"><path id="path48" d="m 210.63122,83.265743 c 0,9.92254 -0.9942,16.794237 -2.9826,20.615097 -1.99816,3.82086 -5.79952,6.8717 -11.41385,9.14277 -4.55189,1.79346 -9.47417,2.76817 -14.75709,2.93387 l -1.47181,-5.61432 c 5.37064,-0.73103 9.15252,-1.46207 11.34561,-2.1931 4.31796,-1.46206 7.28108,-3.70389 8.90884,-6.706 1.30611,-2.446517 1.94942,-7.115367 1.94942,-14.026057 l 0,-2.3198 c -6.09193,2.76817 -12.47628,4.14251 -19.15303,4.14251 -4.38619,0 -8.25579,-1.37434 -11.58929,-4.14251 -3.74289,-3.01186 -5.61433,-6.83272 -5.61433,-11.46258 l 0,-37.07793 8.90884,-3.05084 0,37.3216 c 0,3.98656 1.28662,7.0569 3.85985,9.21101 2.57323,2.1541 5.90674,3.18729 9.99077,3.10932 4.08403,-0.08773 8.46047,-1.66676 13.10983,-4.75658 l 0,-43.54025 8.90884,0 0,48.41379 z" style="fill:#646464;fill-opacity:1"/><path id="path50" d="m 245.40884,88.997033 c -1.06243,0.08772 -2.03714,0.12671 -2.93387,0.12671 -5.03925,0 -8.96733,-1.19889 -11.77449,-3.60642 -2.79742,-2.40753 -4.20099,-5.73129 -4.20099,-9.97127 l 0,-35.08953 -6.10168,0 0,-5.60457 6.10168,0 0,-14.88381 8.89909,-3.16781 0,18.05162 10.01026,0 0,5.60457 -10.01026,0 0,34.84585 c 0,3.34325 0.89673,5.71179 2.6902,7.09588 1.54004,1.14041 3.98656,1.79347 7.32006,1.95917 l 0,4.63961 z" style="fill:#646464;fill-opacity:1"/><path id="path52" d="m 299.34923,88.266003 -8.90884,0 0,-34.38773 c 0,-3.49921 -0.81876,-6.51106 -2.44651,-9.02581 -1.88119,-2.84615 -4.49342,-4.26923 -7.84641,-4.26923 -4.08404,0 -9.19152,2.15411 -15.32242,6.46233 l 0,41.22044 -8.90885,0 0,-82.1972101 8.90885,-2.80716 0,37.4385701 c 5.6923,-4.14251 11.91093,-6.21864 18.66566,-6.21864 4.7176,0 8.53846,1.58877 11.46258,4.75658 2.93388,3.1678 4.39594,7.11537 4.39594,11.83296 l 0,37.1949 0,0 z" style="fill:#646464;fill-opacity:1"/><path id="path54" d="m 346.70059,60.525783 c 0,-5.59483 -1.06242,-10.21495 -3.17755,-13.87011 -2.51474,-4.45442 -6.42332,-6.80347 -11.70625,-7.04715 -9.76658,0.56534 -14.64012,7.56375 -14.64012,20.97574 0,6.15042 1.01369,11.28713 3.06057,15.41015 2.61223,5.25368 6.53056,7.84641 11.755,7.75869 9.80557,-0.07798 14.70835,-7.81717 14.70835,-23.22732 z m 9.75685,0.05848 c 0,7.96338 -2.03714,14.5914 -6.10168,19.88407 -4.47391,5.92623 -10.65357,8.89909 -18.53897,8.89909 -7.81716,0 -13.90909,-2.97286 -18.30503,-8.89909 -3.98656,-5.29267 -5.97497,-11.92069 -5.97497,-19.88407 0,-7.48576 2.15411,-13.78238 6.46232,-18.90935 4.5519,-5.43888 10.53661,-8.16806 17.93464,-8.16806 7.39805,0 13.42174,2.72918 18.06137,8.16806 4.3082,5.12697 6.46232,11.42359 6.46232,18.90935 z" style="fill:#646464;fill-opacity:1"/><path id="path56" d="m 407.53218,88.266003 -8.90884,0 0,-36.33715 c 0,-3.98656 -1.19889,-7.09588 -3.59667,-9.33772 -2.39779,-2.23208 -5.59483,-3.31401 -9.58139,-3.22628 -4.23023,0.07798 -8.25579,1.46206 -12.07664,4.14251 l 0,44.75864 -8.90884,0 0,-45.86006 c 5.12697,-3.73313 9.84456,-6.16991 14.15276,-7.31032 4.06455,-1.06243 7.65148,-1.58877 10.74131,-1.58877 2.11512,0 4.10352,0.20469 5.97496,0.61406 3.49921,0.80901 6.34535,2.31006 8.53845,4.51291 2.44651,2.43677 3.6649,5.3609 3.6649,8.78212 l 0,40.85006 z" style="fill:#646464;fill-opacity:1"/></g><path id="path2196" d="M 107.59375,0 C 74.969981,0 48.572931,9.593118 28.500001,28.6875 9.501691,46.686855 0,68.782099 0,95.0625 c 0,27.95719 8.76385,51.23143 26.343751,69.8125 19.38518,20.80534 46.2467,31.25 80.718749,31.25 34.77298,0 62.02099,-10.44466 81.75,-31.25 5.28096,-5.47462 9.77236,-11.3677 13.5,-17.65625 l -40.1875,0 c -10.40946,19.29518 -28.49867,29.02426 -54.28125,29.1875 -23.038689,0.30796 -40.324359,-8.80579 -51.843749,-27.25 -9.02632,-14.47476 -13.5,-32.50135 -13.5,-54.09375 0,-47.085733 21.49392,-71.671499 64.562499,-73.65625 23.29663,0.855493 40.53553,9.111781 51.625,24.750001 2.11114,2.904448 3.95875,5.998052 5.59375,9.25 l 42.78125,0 C 202.36242,45.663815 195.74812,36.768402 187.21875,28.6875 166.75895,9.593117 140.21761,0 107.59375,0 z" style="fill:#646464;fill-opacity:1"/></svg>