<?xml version="1.0" encoding="UTF-8"?>
<svg width="702px" height="195px" viewBox="0 0 702 195" version="1.1" xmlns="http://www.w3.org/2000/svg" xmlns:xlink="http://www.w3.org/1999/xlink">
    <g id="okteto-logo-light-h-1.1" stroke="none" stroke-width="1" fill="none" fill-rule="evenodd">
        <g id="Logo" fill-rule="nonzero">
            <path d="M39.5376871,19.0760934 C82.4037379,-13.0311981 142.599849,-3.57842777 175.398538,39.6846954 C181.713849,48.0149085 180.340407,60.4417128 171.479941,66.0086129 C162.619476,71.5755129 151.230572,69.909909 145.047654,61.7543283 C129.258049,40.9270429 102.389466,32.4052214 77.9159539,40.595298 C53.4587492,48.7799168 37.2825391,71.8145967 37.8202898,97.7118024 C38.3586067,123.636229 54.3866707,146.547919 79.2243726,154.492595 C104.036204,162.428996 130.316255,153.909155 145.252448,132.922876 C151.91446,123.562335 161.74725,121.793993 171.100865,127.195535 C180.45448,132.597077 181.270332,146.270465 175.487451,154.737262 C157.582532,179.895965 129.748558,194.848193 98.6197852,195 C67.5087104,195.149364 38.3453056,180.878749 19.4404471,155.930849 C-13.3579996,112.667742 -3.32827317,51.1833172 39.5376871,19.0760934 Z M166.415245,78.7002299 C172.53656,75.7359802 179.804314,76.3054539 185.481982,80.1811341 C191.150285,84.0504215 194.383945,90.6344592 193.963478,97.4645692 C193.541598,104.317643 189.504407,110.375912 183.372634,113.345226 C177.251318,116.309474 169.983563,115.74 164.305897,111.864321 C158.637593,107.995032 155.403934,101.410996 155.824401,94.5808847 C156.246281,87.7278107 160.283472,81.6695417 166.415245,78.7002299 Z" id="Combined-Shape" fill="#00D1CA" transform="translate(97.000000, 97.500000) rotate(-360.000000) translate(-97.000000, -97.500000) "></path>
            <path d="M403.578,150.136612 L382.931,150.136612 L352.85,108.796448 L352.575,122.039617 L352.575,150.136612 L336.291,150.136612 L336.291,22 L352.575,22 L352.575,100.922131 L380.099,62.4453552 L400.985,62.4453552 L400.985,63.1612022 L371.178,104.241518 L403.578,149.420765 L403.578,150.136612 Z M446.22,151.568306 C439.139964,151.568306 433.269523,149.361133 428.6085,144.946721 C423.947477,140.532309 421.558,134.388018 421.44,126.513661 L421.44,77.4781421 L406.218,77.4781421 L406.218,62.4453552 L421.44,62.4453552 L421.44,38.6343429 L437.724,38.6343429 L437.724,62.4453552 L458.964,62.4453552 L458.964,77.4781421 L437.724,77.4781421 L437.724,121.144809 C437.724,126.990922 438.844989,130.957868 441.087,133.045765 C443.329011,135.133663 445.865986,136.177596 448.698,136.177596 C449.996006,136.177596 451.264494,136.028462 452.5035,135.730191 C453.742506,135.43192 454.892994,135.044174 455.955,134.56694 L461.088,149.241803 C456.839979,150.792813 451.884028,151.568306 446.22,151.568306 Z M594.41,151.568306 C587.329964,151.568306 581.459523,149.361133 576.7985,144.946721 C572.137476,140.532309 569.748,134.388018 569.63,126.513661 L569.63,77.4781421 L554.408,77.4781421 L554.408,62.4453552 L569.63,62.4453552 L569.63,38.6343429 L585.914,38.6343429 L585.914,62.4453552 L607.154,62.4453552 L607.154,77.4781421 L585.914,77.4781421 L585.914,121.144809 C585.914,126.990922 587.034988,130.957868 589.277,133.045765 C591.519011,135.133663 594.055985,136.177596 596.888,136.177596 C598.186006,136.177596 599.454493,136.028462 600.6935,135.730191 C601.932506,135.43192 603.082994,135.044174 604.145,134.56694 L609.278,149.241803 C605.029978,150.792813 600.074028,151.568306 594.41,151.568306 Z M656,152.429749 C630.594902,152.429749 610,131.606587 610,105.919916 C610,80.2332446 630.594902,59.410083 656,59.410083 C681.405098,59.410083 702,80.2332446 702,105.919916 C702,131.606587 681.405098,152.429749 656,152.429749 Z M656,135.915388 C672.384447,135.915388 685.666666,122.485958 685.666666,105.919916 C685.666666,89.3538742 672.384447,75.924444 656,75.924444 C639.615552,75.924444 626.333333,89.3538742 626.333333,105.919916 C626.333333,122.485958 639.615552,135.915388 656,135.915388 Z M282,152.429749 C256.594902,152.429749 236,131.606587 236,105.919916 C236,80.2332446 256.594902,59.410083 282,59.410083 C307.405098,59.410083 328,80.2332446 328,105.919916 C328,131.606587 307.405098,152.429749 282,152.429749 Z M282,135.915388 C298.384447,135.915388 311.666666,122.485958 311.666666,105.919916 C311.666666,89.3538742 298.384447,75.924444 282,75.924444 C265.615552,75.924444 252.333333,89.3538742 252.333333,105.919916 C252.333333,122.485958 265.615552,135.915388 282,135.915388 Z M508.593,153 C495.392934,153 484.515265,148.604479 475.959666,139.813304 C467.404068,131.022129 463.044,119.073307 463.044,105.648946 C463.044,92.3433842 467.199514,81.2654824 475.510667,72.414908 C483.821819,63.5643335 494.455046,59.1391127 507.410667,59.1391127 C520.732956,59.1391127 530.173092,63.5408126 539.219,71.7021136 C548.264908,79.8634145 554.112268,95.1013244 553.044,110.700488 L480.277333,110.700488 C480.521779,119.254064 483.455083,124.122174 489.077333,129.349359 C494.699584,134.576544 501.421739,137.190097 509.244,137.190097 C519.999609,137.190097 528.997167,131.691177 533.508218,121.508621 L551.241202,121.508621 C548.846951,131.914304 540.075696,142.382085 532.884666,146.763049 C525.693636,151.144013 517.637489,153 508.593,153 Z M481.044,95.5381124 L536.02013,95.5381124 C534.696943,89.6203667 531.416358,84.1903938 526.180002,80.0633965 C520.943646,75.9363991 516.36528,73.8630337 508.593,73.8630337 C502.177784,73.8630337 495.8305,76.224688 491.204142,80.0633965 C486.577785,83.9021049 482.524434,89.060292 481.044,95.5381124 Z" id="okteto" fill="#FFFFFF"></path>
        </g>
    </g>
</svg>