<svg xmlns="http://www.w3.org/2000/svg" width="260" height="52" fill="none" viewBox="0 0 260 52"><path fill="#F0B90B" d="M34.5124 13.5333L25.2404 22.3687L19.8453 17.2274L34.5124 3.25L49.1844 17.2321L43.7893 22.3734L34.5124 13.5333Z"/><path fill="#F0B90B" d="M16.0369 20.8606L21.4319 26.0017L16.0366 31.1432L10.6416 26.002L16.0369 20.8606Z"/><path fill="#F0B90B" d="M25.2413 29.6313L34.5133 38.4667L43.7898 29.627L49.1879 34.7654L49.1852 34.7682L34.5133 48.75L19.8383 34.7657L25.2413 29.6313Z"/><path fill="#F0B90B" d="M58.3864 26.0019L52.9911 31.1434L47.5961 26.0022L52.9914 20.8607L58.3864 26.0019Z"/><path fill="#F0B90B" d="M34.514 20.7829L29.0367 26.0026L29.0442 26.0101L34.514 31.2225L39.9887 26.0054L39.9913 26.0026L34.514 20.7829Z"/><path fill="#F0B90B" fill-rule="evenodd" d="M78.5308 14.2733H66.7967V38.4H78.8208C80.2405 38.4 81.5343 38.2623 82.7018 37.9867C83.8693 37.7107 84.8682 37.2975 85.699 36.7459C86.5297 36.1943 87.1677 35.5047 87.6131 34.6778C88.0584 33.8502 88.2809 32.8853 88.2809 31.7821V31.7135C88.2809 30.1054 87.8605 28.8473 87.0207 27.9392C86.1805 27.0315 85.0281 26.3138 83.5642 25.7849C84.0194 25.5556 84.4444 25.2796 84.8399 24.9576C85.2351 24.6364 85.5828 24.263 85.8819 23.8375C86.1816 23.4124 86.4215 22.9363 86.601 22.4073C86.7808 21.879 86.8702 21.2699 86.8702 20.5807V20.5117C86.8702 18.8806 86.2929 17.5132 85.1378 16.41C83.6453 14.9855 81.4431 14.2733 78.5308 14.2733ZM80.2873 23.4243C79.5644 23.8267 78.5877 24.0273 77.3576 24.0273H72.2216V18.9262H77.7193C78.9003 18.9262 79.8046 19.139 80.4317 19.5641C81.0584 19.9895 81.3722 20.604 81.3722 21.4079V21.4769C81.3722 22.3728 81.0106 23.0221 80.2873 23.4243ZM81.7342 33.1099C81.0343 33.5354 80.0704 33.7474 78.8407 33.7474L72.2216 33.7478V28.4398H78.6597C80.1067 28.4398 81.1553 28.6755 81.8066 29.1459C82.4575 29.6174 82.7833 30.2549 82.7833 31.0591V31.1277C82.7833 32.024 82.4333 32.6848 81.7342 33.1099Z" clip-rule="evenodd"/><path fill="#F0B90B" d="M95.2701 14.2733H100.841V38.4007H95.2701V14.2733Z"/><path fill="#F0B90B" d="M114.412 14.2733H109.277V38.4007H114.774V23.0627L127.036 38.4007H131.773V14.2733H126.276V29.129L114.412 14.2733Z"/><path fill="#F0B90B" fill-rule="evenodd" d="M148.639 14.1041H153.774L164.626 38.4036H158.802L156.487 32.9925H145.781L143.467 38.4036H137.787L148.639 14.1041ZM154.498 28.3043L151.134 20.4805L147.771 28.3043H154.498Z" clip-rule="evenodd"/><path fill="#F0B90B" d="M175.775 14.2733H170.638V38.4007H176.136V23.0627L188.398 38.4007H193.136V14.2733H187.638V29.129L175.775 14.2733Z"/><path fill="#F0B90B" d="M213.181 38.8115C211.324 38.8115 209.6 38.4895 208.009 37.8466C206.417 37.2038 205.043 36.3244 203.885 35.2097C202.728 34.0953 201.823 32.7798 201.173 31.2633C200.522 29.7464 200.196 28.1265 200.196 26.403V26.3344C200.196 24.6109 200.522 22.9971 201.173 21.4917C201.823 19.9867 202.728 18.6654 203.885 17.528C205.042 16.3907 206.429 15.4941 208.044 14.8393C209.659 14.1846 211.445 13.8572 213.398 13.8572C214.579 13.8572 215.658 13.9496 216.634 14.1329C217.611 14.3172 218.497 14.5695 219.293 14.8911C220.089 15.2131 220.824 15.6037 221.5 16.063C222.174 16.5229 222.801 17.0282 223.38 17.5798L219.836 21.4745C218.846 20.6246 217.84 19.9576 216.816 19.4754C215.79 18.9931 214.639 18.7516 213.361 18.7516C212.3 18.7516 211.318 18.9471 210.414 19.3377C209.51 19.7284 208.732 20.2681 208.081 20.9574C207.43 21.6466 206.924 22.4454 206.561 23.3528C206.2 24.2609 206.02 25.2315 206.02 26.2654V26.334C206.02 27.3679 206.2 28.345 206.561 29.2635C206.924 30.1831 207.423 30.9869 208.063 31.6762C208.701 32.3654 209.473 32.9116 210.377 33.3138C211.282 33.7162 212.277 33.9167 213.361 33.9167C214.809 33.9167 216.031 33.6641 217.032 33.1585C218.033 32.6536 219.028 31.964 220.016 31.0904L223.561 34.5029C222.91 35.1695 222.234 35.7671 221.536 36.295C220.836 36.8239 220.071 37.2774 219.238 37.6569C218.407 38.0357 217.496 38.3235 216.508 38.5183C215.519 38.7134 214.41 38.8115 213.181 38.8115Z"/><path fill="#F0B90B" d="M249.176 14.2733H230.115V38.4007H249.358V33.6788H235.613V28.6119H247.549V23.89H235.613V18.9956H249.176V14.2733Z"/></svg>