<svg clip-rule="evenodd" fill-rule="evenodd" stroke-linejoin="round" stroke-miterlimit="2" viewBox="0 0 560 400" xmlns="http://www.w3.org/2000/svg"><g fill="#1da2b4" fill-rule="nonzero"><path d="m0 0c.852 0 1.521-.257 2.007-.77.489-.513.731-1.218.731-2.116v-17.507c0-.898-.242-1.604-.731-2.117-.486-.512-1.155-.769-2.007-.769h-14.606v-69.564c0-.898-.243-1.603-.732-2.116-.486-.513-1.155-.769-2.008-.769h-21.908c-.851 0-1.52.256-2.007.769-.489.513-.731 1.218-.731 2.116v69.564h-14.607c-.851 0-1.521.257-2.007.769-.49.513-.731 1.219-.731 2.117v17.507c0 .898.241 1.603.731 2.116.486.513 1.156.77 2.007.77h14.607v24.515c0 .898.242 1.603.731 2.116.487.514 1.156.77 2.007.77h21.908c.853 0 1.522-.256 2.008-.77.489-.513.732-1.218.732-2.116v-24.515z" transform="matrix(.530973 0 0 -.530051 458.546104273 179.089579421)"/><path d="m0 0c-4.746 0-8.823-1.411-12.23-4.233-3.412-2.693-5.602-6.669-6.575-11.928h36.881c-.852 5.259-2.922 9.235-6.209 11.928-3.286 2.822-7.242 4.233-11.867 4.233m42.357-22.509c0-4.234-.424-7.312-1.277-9.236-.851-1.796-2.617-2.693-5.294-2.693h-54.225c1.338-5.131 3.956-9.042 7.85-11.735 4.018-2.566 9.068-3.848 15.154-3.848 3.043 0 5.903.385 8.581 1.154 2.798.898 5.72 2.372 8.765 4.425.608.513 1.276.77 2.007.77.607 0 1.276-.385 2.008-1.155l9.495-9.62c.486-.512.73-1.154.73-1.924 0-.769-.365-1.539-1.095-2.308-4.381-4.617-9.434-8.208-15.156-10.774-5.597-2.437-11.623-3.655-18.073-3.655-9.129 0-17.345 2.18-24.649 6.541-7.181 4.36-12.78 10.261-16.797 17.7-4.015 7.439-6.026 15.648-6.026 24.626s1.949 17.187 5.843 24.626c4.018 7.439 9.495 13.275 16.434 17.507 6.936 4.361 14.666 6.542 23.184 6.542 8.399 0 15.825-2.117 22.278-6.35 6.45-4.232 11.44-9.939 14.969-17.122 3.531-7.183 5.294-15.006 5.294-23.471" transform="matrix(.530973 0 0 -.530051 402.594293425 191.669279804)"/><path d="m0 0c5.601 0 10.347 2.244 14.24 6.733 3.898 4.49 5.843 9.684 5.843 15.583 0 5.901-1.945 11.031-5.843 15.392-3.893 4.489-8.639 6.734-14.24 6.734-5.719 0-10.527-2.181-14.424-6.542-3.894-4.232-5.843-9.426-5.843-15.584 0-6.284 1.887-11.606 5.661-15.967 3.896-4.233 8.763-6.349 14.606-6.349m45.278 68.49c.852 0 1.524-.256 2.011-.769.486-.513.728-1.219.728-2.117v-90.615c0-9.363-2.432-16.93-7.302-22.702-4.746-5.9-10.772-10.068-18.076-12.506-7.181-2.436-14.604-3.655-22.274-3.655-7.667 0-15.031 1.154-22.091 3.464-6.939 2.18-12.84 5.13-17.711 8.849-.731.513-1.093 1.218-1.093 2.117 0 .769.121 1.346.362 1.731l7.122 13.467c.732 1.026 1.46 1.539 2.191 1.539.61 0 1.096-.128 1.461-.385 4.139-2.564 8.399-4.425 12.78-5.579 4.504-1.154 9.432-1.731 14.789-1.731 6.208 0 11.868 1.411 16.979 4.232 5.112 2.694 7.667 7.247 7.667 13.66v8.85c-7.059-8.465-15.82-12.697-26.288-12.697-8.157 0-15.52 2.179-22.095 6.541-6.57 4.36-11.744 10.26-15.516 17.7-3.652 7.438-5.478 15.519-5.478 24.24 0 8.722 1.826 16.802 5.478 24.242 3.772 7.439 8.946 13.339 15.516 17.699 6.575 4.361 13.938 6.542 22.095 6.542 9.979 0 18.5-4.169 25.561-12.505l.545 7.502c.245 1.925 1.159 2.886 2.738 2.886z" transform="matrix(.530973 0 0 -.530051 347.977348699 216.143324627)"/><path d="m0 0c.853 0 1.521-.257 2.008-.77.486-.513.731-1.218.731-2.116v-17.507c0-.898-.245-1.604-.731-2.117-.487-.512-1.155-.769-2.008-.769h-14.606v-69.564c0-.898-.245-1.603-.731-2.116s-1.156-.769-2.008-.769h-21.908c-.851 0-1.521.256-2.011.769-.486.513-.727 1.218-.727 2.116v69.564h-14.607c-.852 0-1.521.257-2.01.769-.487.513-.729 1.219-.729 2.117v17.507c0 .898.242 1.603.729 2.116.489.513 1.158.77 2.01.77h14.607v24.515c0 .898.241 1.603.727 2.116.49.514 1.16.77 2.011.77h21.908c.852 0 1.522-.256 2.008-.77.486-.513.731-1.218.731-2.116v-24.515z" transform="matrix(.530973 0 0 -.530051 318.383568544 179.089579421)"/><path d="m0 0c0 .898.242 1.603.729 2.116.489.513 1.158.77 2.01.77h21.908c.852 0 1.521-.257 2.007-.77.49-.513.732-1.218.732-2.116v-89.957c0-.897-.242-1.603-.732-2.116-.486-.513-1.155-.77-2.007-.77h-21.908c-.852 0-1.521.257-2.01.77-.487.513-.729 1.219-.729 2.116zm13.693 10.686c-4.139 0-7.609 1.475-10.406 4.425-2.8 3.078-4.201 6.734-4.201 10.967 0 4.36 1.401 8.016 4.201 10.966 2.797 3.078 6.267 4.617 10.406 4.617s7.608-1.539 10.406-4.617c2.8-2.95 4.201-6.606 4.201-10.966 0-4.233-1.401-7.889-4.201-10.967-2.798-2.95-6.267-4.425-10.406-4.425" transform="matrix(.530973 0 0 -.530051 266.966267116 180.582733088)"/><path d="m0 0c5.599 0 10.042 1.347 13.328 4.04 3.287 2.693 4.93 6.733 4.93 12.121 0 5.258-1.643 9.107-4.93 11.543-3.286 2.566-7.729 3.848-13.328 3.848h-20.448v-31.552zm10.59 69.645c0 8.209-4.808 12.313-14.424 12.313h-16.614v-25.78h16.614c4.503 0 8.033 1.09 10.589 3.27 2.557 2.309 3.835 5.708 3.835 10.197m10.954-24.049c6.816-1.924 12.659-5.836 17.528-11.736 4.991-5.899 7.485-13.018 7.485-21.355 0-12.954-3.956-22.701-11.868-29.243-7.79-6.412-19.717-9.619-35.784-9.619h-44.914c-.852 0-1.522.256-2.008.769-.487.513-.731 1.219-.731 2.116v128.902c0 .897.244 1.603.731 2.116.486.513 1.156.769 2.008.769h44.731c8.033 0 14.911-1.539 20.631-4.617 5.843-3.078 10.225-7.247 13.146-12.505 3.043-5.259 4.565-11.159 4.565-17.7 0-6.67-1.522-12.506-4.565-17.508-2.921-5.002-6.573-8.464-10.955-10.389" transform="matrix(.530973 0 0 -.530051 236.876027206 215.912752442)"/><path d="m0 0c2.319 2.577 5.567 4.04 8.967 4.04h22.008c2.778 0 4.219-3.434 2.325-5.539l-43.524-48.364h24.052l24.456-26.952h-48.508l48.508-53.904h-29.317c-3.4 0-6.648 1.464-8.967 4.04l-49.204 54.677c-4.391 4.879-4.391 12.446 0 17.325z" transform="matrix(.530973 0 0 -.530051 127.8746508307 152.14125653)"/><path d="m0 0c-2.319-2.577-5.567-4.041-8.967-4.041h-22.008c-2.778 0-4.22 3.434-2.325 5.54l43.524 48.363h-24.052l-24.457 26.952h48.509l-48.509 53.904h29.318c3.4 0 6.648-1.463 8.967-4.04l49.204-54.677c4.391-4.879 4.391-12.446 0-17.325z" transform="matrix(.530973 0 0 -.530051 163.790248621 247.85786611)"/></g></svg>