<svg xmlns="http://www.w3.org/2000/svg" width="141" height="28" fill="none" viewBox="0 0 141 28"><path fill="#0052FF" d="M33.9401 9.3628C29.4858 9.3628 26.0054 12.6047 26.0054 16.9447C26.0054 21.2847 29.3979 24.4989 33.9401 24.4989C38.4823 24.4989 41.9338 21.2293 41.9338 16.917C41.9338 12.6325 38.5413 9.3628 33.9401 9.3628ZM33.9702 21.3712C31.4336 21.3712 29.5749 19.4824 29.5749 16.9458C29.5749 14.3804 31.4036 12.4927 33.9401 12.4927C36.5067 12.4927 38.3643 14.4092 38.3643 16.9458C38.3643 19.4824 36.5067 21.3712 33.9702 21.3712ZM42.9065 12.6613H45.1192V24.2183H48.6586V9.64452H42.9065V12.6613ZM17.098 12.4916C18.9567 12.4916 20.4315 13.5908 20.9913 15.2256H24.7377C24.0588 11.7308 21.0503 9.3628 17.128 9.3628C12.6738 9.3628 9.19336 12.6047 9.19336 16.9458C9.19336 21.2869 12.5858 24.5 17.128 24.5C20.9624 24.5 24.0298 22.132 24.7088 18.6084H20.9913C20.4604 20.2432 18.9857 21.3712 17.1269 21.3712C14.5603 21.3712 12.7617 19.4824 12.7617 16.9458C12.7628 14.3804 14.5325 12.4916 17.098 12.4916ZM110.157 15.5361L107.562 15.1701C106.323 15.0015 105.438 14.6067 105.438 13.6761C105.438 12.6613 106.589 12.1544 108.151 12.1544C109.862 12.1544 110.954 12.8587 111.19 14.0144H114.611C114.227 11.083 111.868 9.36387 108.24 9.36387C104.494 9.36387 102.016 11.1961 102.016 13.7892C102.016 16.2692 103.639 17.7077 106.913 18.1581L109.508 18.5241C110.777 18.6927 111.485 19.1729 111.485 20.0746C111.485 21.2303 110.246 21.7095 108.535 21.7095C106.441 21.7095 105.261 20.892 105.084 19.652H101.604C101.929 22.4991 104.258 24.5 108.505 24.5C112.37 24.5 114.935 22.8086 114.935 19.9049C114.935 17.3118 113.078 15.9587 110.157 15.5361ZM46.8889 3.64086C45.5911 3.64086 44.6172 4.54258 44.6172 5.78259C44.6172 7.02259 45.59 7.92431 46.8889 7.92431C48.1867 7.92431 49.1606 7.02259 49.1606 5.78259C49.1606 4.54258 48.1867 3.64086 46.8889 3.64086ZM98.831 14.6344C98.831 11.4778 96.8254 9.36387 92.5781 9.36387C88.5668 9.36387 86.3252 11.3092 85.8822 14.2972H89.3927C89.5697 13.1415 90.5135 12.1832 92.5191 12.1832C94.3189 12.1832 95.2037 12.9441 95.2037 13.8746C95.2037 15.0869 93.581 15.3963 91.5753 15.5938C88.8618 15.8755 85.4994 16.7772 85.4994 20.16C85.4994 22.7819 87.5351 24.4723 90.7795 24.4723C93.3161 24.4723 94.9088 23.4574 95.7057 21.8503C95.8237 23.2877 96.9445 24.2183 98.5083 24.2183H100.573V21.2026H98.8322V14.6344H98.831ZM95.3507 18.2989C95.3507 20.2443 93.581 21.6817 91.4273 21.6817C90.0994 21.6817 88.9786 21.146 88.9786 20.0191C88.9786 18.5817 90.7784 18.1869 92.4301 18.0183C94.0228 17.8774 94.9077 17.5391 95.3507 16.8903V18.2989ZM76.5619 9.3628C74.5852 9.3628 72.9334 10.1525 71.7536 11.4768V3.5H68.2143V24.2183H71.6947V22.3017C72.8744 23.6826 74.5562 24.5 76.5619 24.5C80.8091 24.5 84.0246 21.2869 84.0246 16.9458C84.0246 12.6047 80.7501 9.3628 76.5619 9.3628ZM76.031 21.3712C73.4944 21.3712 71.6357 19.4824 71.6357 16.9458C71.6357 14.4092 73.5233 12.4927 76.0599 12.4927C78.6265 12.4927 80.4251 14.3815 80.4251 16.9458C80.4251 19.4824 78.5675 21.3712 76.031 21.3712ZM59.7487 9.3628C57.4481 9.3628 55.9433 10.2645 55.0584 11.5333V9.64452H51.548V24.2172H55.0874V16.297C55.0874 14.0699 56.5621 12.4916 58.7447 12.4916C60.7804 12.4916 62.0482 13.8725 62.0482 15.8744V24.2183H65.5875V15.6215C65.5887 11.9559 63.6131 9.3628 59.7487 9.3628ZM131.807 16.4667C131.807 12.2953 128.622 9.36387 124.345 9.36387C119.802 9.36387 116.469 12.6335 116.469 16.9458C116.469 21.4843 120.038 24.5 124.404 24.5C128.091 24.5 130.982 22.4138 131.718 19.4546H128.031C127.5 20.7512 126.202 21.4843 124.462 21.4843C122.19 21.4843 120.479 20.1312 120.096 17.7632H131.806V16.4667H131.807ZM120.303 15.3387C120.864 13.309 122.457 12.323 124.286 12.323C126.291 12.323 127.825 13.4222 128.179 15.3387H120.303Z"/></svg>