<svg width="89" height="27" viewBox="0 0 89 27" fill="none" xmlns="http://www.w3.org/2000/svg">
<path d="M5.2094 20.992C5.27667 14.7758 11.8848 13.4619 11.1449 6.6699C10.9316 4.71454 9.98803 2.397 8.07322 0.542541C7.97321 0.445539 7.80683 0.526324 7.81945 0.665071C8.39696 6.90445 3.99521 9.86227 2.01613 12.4624C-2.3724 18.2282 0.853301 25.6214 7.35876 26.6001C7.50261 26.6217 7.59061 26.4473 7.4873 26.3449C6.15179 25.0211 5.20909 23.3408 5.20909 20.992H5.2094Z" fill="#F0F1F4"/>
<path d="M13.7211 11.0417C13.6334 10.9672 13.4986 11.015 13.4767 11.1279C13.319 11.934 12.8172 13.265 11.2069 15.5981C7.03696 21.639 9.05179 24.3235 10.8723 26.3423C11.2738 26.82 11.0734 26.2362 11.9269 25.6449C13.0731 24.8509 13.5594 24.7506 14.6458 23.7845C15.8849 22.5429 16.8904 20.5882 16.9877 18.6085C17.1994 14.3056 14.6683 11.8457 13.7211 11.0417Z" fill="#008CD6"/>
<path fill-rule="evenodd" clip-rule="evenodd" d="M32.5134 13.5073V5.91211H34.974C35.4994 5.91211 35.9254 6.34955 35.9254 6.88935V24.9892H33.4645C32.9391 24.9892 32.5134 24.5515 32.5134 24.012V16.5709H25.2221V24.9892H22.7612C22.2361 24.9892 21.8101 24.5515 21.8101 24.012V5.91211H24.2709C24.7963 5.91211 25.2221 6.34955 25.2221 6.88935V13.5073H32.5134ZM47.1173 19.454V10.4036V10.4033H49.6385C50.1743 10.4033 50.6087 10.8413 50.6087 11.3817V19.6125C50.6087 22.5756 48.204 24.9998 45.2648 24.9998H43.8356C40.8967 24.9998 38.4917 22.5756 38.4917 19.6127V10.4033H38.492H41.0131C41.5492 10.4033 41.9836 10.8413 41.9836 11.3817V19.2899C41.9836 21.1814 44.0234 22.6157 45.995 21.4673C46.701 21.056 47.1173 20.2765 47.1173 19.454ZM85.8557 24.9888H88.3238V12.1527C88.3238 11.6115 87.8965 11.1729 87.3699 11.1729H84.9019V24.0087C84.9019 24.5499 85.3288 24.9888 85.8557 24.9888ZM88.5371 7.81554C88.5371 8.86685 87.6849 9.71897 86.6338 9.71897C85.5824 9.71897 84.7302 8.86685 84.7302 7.81554C84.7302 6.76424 85.5824 5.91211 86.6338 5.91211C87.6849 5.91211 88.5371 6.76424 88.5371 7.81554ZM62.8663 18.937C62.8663 20.6759 61.4644 21.8335 59.7509 21.8335C58.0373 21.8335 56.6354 20.6759 56.6354 18.937V16.4555C56.6354 14.7166 58.0373 13.5589 59.7509 13.5589C61.4644 13.5589 62.8663 14.7166 62.8663 16.4555V18.937ZM59.7509 10.4033C56.1281 10.4033 53.1636 13.0333 53.1636 16.7097V18.6982C53.1636 22.3748 56.1281 24.9892 59.7509 24.9892C63.3739 24.9892 66.3379 22.3748 66.3379 18.6982V16.7097C66.3379 13.0333 63.3739 10.4033 59.7509 10.4033ZM75.5329 21.8357C77.2573 21.8357 78.6686 20.6788 78.6686 18.9411V16.4613C78.6686 14.7235 77.2573 13.5667 75.5329 13.5667C73.8082 13.5667 72.3972 14.7235 72.3972 16.4613V18.9411C72.3972 20.6788 73.8082 21.8357 75.5329 21.8357ZM72.3792 11.135C73.3185 10.6698 74.3931 10.4132 75.5329 10.4132C79.1792 10.4132 82.1627 13.0414 82.1627 16.7153V18.7025C82.1627 22.3766 79.1792 24.9892 75.5329 24.9892C71.8864 24.9892 68.9028 22.3766 68.9028 18.7025V5.91211H71.4101C71.9451 5.91211 72.3792 6.34917 72.3792 6.88825V11.135Z" fill="#F0F1F4"/>
</svg>
