<svg xmlns="http://www.w3.org/2000/svg" width="141" height="28" fill="none" viewBox="0 0 141 28"><path fill="#23AF91" d="M33.4601 21.26L26.521 14.0025L33.4633 6.73936L37.8433 11.3196C38.6265 12.0571 39.8248 12.0242 40.57 11.2449C41.3152 10.4657 41.3466 9.21266 40.6414 8.39365L34.857 2.34931C34.0808 1.55023 32.8351 1.55023 32.0589 2.34931L23.7208 11.0698V5.88521C23.7208 4.74098 22.8337 3.81341 21.7395 3.81341C20.6453 3.81341 19.7583 4.74098 19.7583 5.88521V22.113C19.7583 23.2572 20.6453 24.1848 21.7395 24.1848C22.8337 24.1848 23.7208 23.2572 23.7208 22.113V16.9284L32.06 25.6511C32.8364 26.4496 34.0816 26.4496 34.858 25.6511L40.6382 19.6057C41.3434 18.7867 41.312 17.5337 40.5668 16.7544C39.8215 15.9751 38.6233 15.9423 37.8401 16.6797L33.4601 21.26Z"/><path fill="#23AF91" d="M31.6302 13.208C31.9375 12.433 32.661 11.928 33.4633 11.9284C33.9894 11.9287 34.4937 12.1464 34.8655 12.5356C35.2372 12.9247 35.4459 13.4524 35.4456 14.0025C35.4456 14.8415 34.9623 15.5978 34.221 15.9188C33.4797 16.2397 32.6266 16.0621 32.0594 15.4687C31.4922 14.8752 31.3228 13.983 31.6302 13.208Z"/><path fill="#23AF91" fill-rule="evenodd" d="M99.6369 14.0025C99.6369 13.3768 99.6369 12.7883 99.6176 12.2447C99.6044 11.7319 99.5558 11.2208 99.4723 10.7153C99.3942 10.2538 99.2562 9.8055 99.0623 9.3829C98.8575 8.94719 98.5839 8.55074 98.253 8.21027C97.7836 7.70737 97.2251 7.30488 96.6086 7.02526C95.9417 6.74275 95.2274 6.60271 94.5079 6.61338C93.7857 6.60362 93.0688 6.74361 92.3986 7.02526C91.7786 7.30106 91.2166 7.70181 90.7446 8.20464C90.4142 8.54491 90.1417 8.94144 89.9385 9.37728C89.7462 9.79996 89.6104 10.2483 89.535 10.7097C89.4533 11.2153 89.4065 11.7264 89.395 12.2391C89.3821 12.7826 89.3757 13.3712 89.3789 13.9969C89.3797 14.1507 89.3801 14.302 89.3805 14.4508C89.3817 14.9071 89.3829 15.3414 89.395 15.7536C89.4065 16.2662 89.4533 16.7774 89.535 17.283C89.6104 17.7444 89.7462 18.1927 89.9385 18.6154C90.1425 19.0507 90.415 19.4471 90.7446 19.788C91.2158 20.2913 91.7781 20.6914 92.3986 20.9652C93.0684 21.2487 93.7855 21.3895 94.5079 21.3793C95.2277 21.3904 95.9421 21.2495 96.6086 20.9652C97.2252 20.6893 97.7839 20.2893 98.253 19.788C98.5832 19.4469 98.8567 19.0506 99.0623 18.6154C99.2562 18.1928 99.3942 17.7445 99.4723 17.283C99.5549 16.7789 99.6027 16.2693 99.6154 15.7581C99.6316 15.2112 99.6391 14.626 99.6348 14.0014L99.6369 14.0025ZM96.925 14.0025C96.925 14.6958 96.9153 15.2731 96.8927 15.7322C96.88 16.1094 96.8441 16.4853 96.7851 16.8576C96.7448 17.1056 96.6724 17.3468 96.5699 17.5744C96.4867 17.7579 96.3779 17.9275 96.247 18.0775C96.045 18.3193 95.7944 18.5115 95.5131 18.6402C95.1965 18.7818 94.8555 18.8538 94.5112 18.8518C94.1651 18.8533 93.8224 18.7814 93.5039 18.6402C93.2157 18.5139 92.9583 18.3216 92.7505 18.0775C92.6189 17.9281 92.51 17.7585 92.4277 17.5744C92.3281 17.3466 92.2592 17.1053 92.2232 16.8576C92.1658 16.4851 92.1298 16.1093 92.1156 15.7322C92.0962 15.2731 92.0865 14.6965 92.0865 14.0025C92.0865 13.3093 92.0962 12.7309 92.1156 12.2717C92.1299 11.8947 92.1658 11.5189 92.2232 11.1464C92.2592 10.8986 92.3281 10.6574 92.4277 10.4295C92.5102 10.2456 92.6191 10.076 92.7505 9.92645C92.9586 9.6827 93.2159 9.49049 93.5039 9.36377C93.822 9.22099 94.165 9.14894 94.5112 9.1522C94.8556 9.14846 95.197 9.22055 95.5131 9.36377C95.7942 9.49287 96.0447 9.68496 96.247 9.92645C96.3776 10.0767 96.4864 10.2462 96.5699 10.4295C96.6724 10.6571 96.7448 10.8983 96.7851 11.1464C96.844 11.5187 96.88 11.8946 96.8927 12.2717C96.9164 12.7297 96.925 13.3082 96.925 14.0025Z" clip-rule="evenodd"/><path fill="#23AF91" d="M121.246 6.98929C121.245 6.85244 121.14 6.74181 121.009 6.74058H118.771C118.64 6.7412 118.534 6.85219 118.533 6.98929V15.6321L113.077 6.81036C113.041 6.75071 113.008 6.74058 112.928 6.74058H110.853C110.722 6.7424 110.617 6.85269 110.615 6.98929V21.0136C110.617 21.15 110.722 21.26 110.853 21.2612H113.089C113.22 21.2606 113.325 21.1501 113.326 21.0136V12.3483L118.783 21.1903C118.821 21.2499 118.851 21.2601 118.933 21.2601H121.007C121.137 21.2595 121.243 21.1491 121.244 21.0125L121.246 6.98929Z"/><path fill="#23AF91" d="M106.011 6.74058C106.142 6.7412 106.248 6.85219 106.249 6.98929V21.0125C106.248 21.1496 106.142 21.2606 106.011 21.2612H103.776C103.645 21.2606 103.539 21.1496 103.538 21.0125V6.98929C103.539 6.85219 103.645 6.7412 103.776 6.74058H106.011Z"/><path fill="#23AF91" d="M79.4912 14.0028C79.4912 13.305 79.4987 12.7243 79.5181 12.2618C79.5312 11.8847 79.5672 11.5088 79.6257 11.1364C79.8323 9.88729 80.7471 9.15017 81.9147 9.15017C82.6766 9.15693 83.3675 9.45177 83.8088 10.1225C84.0086 10.4356 84.1543 10.783 84.2392 11.1488C84.2458 11.1874 84.2794 11.2142 84.3167 11.2107H86.948C86.9856 11.2107 86.9996 11.1837 86.9931 11.1454C86.7058 9.44277 85.8373 7.9134 84.3027 7.15602C83.5485 6.79085 82.7253 6.60814 81.8943 6.62147C80.4127 6.62147 79.1647 7.1519 78.1503 8.21274C77.5711 8.80303 77.1757 9.56238 77.016 10.3915C76.861 11.2077 76.7828 12.4111 76.7814 14.0016C76.7799 15.5921 76.8581 16.7952 77.016 17.6107C77.1744 18.4408 77.5686 19.2017 78.147 19.7939C79.1608 20.854 80.4088 21.384 81.891 21.384C82.7219 21.3972 83.545 21.2149 84.2995 20.8506C85.8341 20.0932 86.7026 18.5639 86.9899 16.8612C86.9964 16.8218 86.9824 16.7959 86.9447 16.7959H84.3124C84.275 16.7918 84.241 16.819 84.2349 16.8578C84.1498 17.2232 84.0041 17.5702 83.8045 17.883C83.3632 18.5582 82.6723 18.8497 81.9104 18.8553C80.7428 18.8553 79.828 18.1193 79.6214 16.8702C79.5629 16.4978 79.527 16.1219 79.5138 15.7448C79.4987 15.28 79.4912 14.6982 79.4912 14.0028Z"/><path fill="#23AF91" d="M51.4623 6.74058C51.5934 6.7412 51.6995 6.85219 51.7001 6.98929V12.8907L56.5655 6.78898C56.5871 6.75865 56.6219 6.74174 56.658 6.74396H59.6272C59.7671 6.74396 59.8047 6.85087 59.7154 6.96341L55.2891 12.516L60.1136 21.0688C60.176 21.1802 60.1534 21.2613 60.0286 21.2613H57.3123C57.2583 21.2635 57.2072 21.2351 57.1789 21.1869L53.4941 14.6542L51.7001 16.897V21.0136C51.6989 21.1503 51.5929 21.2606 51.4623 21.2613H49.2271C49.0964 21.2606 48.9904 21.1503 48.9892 21.0136V6.98929C48.9898 6.85219 49.0959 6.7412 49.2271 6.74058H51.4623Z"/><path fill="#23AF91" d="M67.9847 18.8552C66.7267 18.8552 65.5859 17.6375 65.5859 16.1835V6.98929C65.5853 6.85219 65.4792 6.7412 65.3481 6.74058H63.1129C62.9818 6.7412 62.8756 6.85219 62.875 6.98929V16.1475C62.875 19.3492 65.1651 21.3839 67.9847 21.3839C70.8043 21.3839 73.0944 19.3492 73.0944 16.1475V6.98929C73.0932 6.85244 72.9874 6.74181 72.8565 6.74058H70.6202C70.4896 6.74181 70.3841 6.85263 70.3835 6.98929V16.1835C70.3835 17.6364 69.2417 18.8552 67.9847 18.8552Z"/></svg>